<svg width="21" height="19" viewBox="0 0 21 19" fill="none" xmlns="http://www.w3.org/2000/svg">
<path d="M10.605 15.6146L10.5 15.7127L10.3845 15.6146C5.397 11.3868 2.1 8.59118 2.1 5.7563C2.1 3.79445 3.675 2.32306 5.775 2.32306C7.392 2.32306 8.967 3.30399 9.5235 4.63805H11.4765C12.033 3.30399 13.608 2.32306 15.225 2.32306C17.325 2.32306 18.9 3.79445 18.9 5.7563C18.9 8.59118 15.603 11.3868 10.605 15.6146ZM15.225 0.361206C13.398 0.361206 11.6445 1.15576 10.5 2.40153C9.3555 1.15576 7.602 0.361206 5.775 0.361206C2.541 0.361206 0 2.72524 0 5.7563C0 9.45439 3.57 12.4855 8.9775 17.0664L10.5 18.3612L12.0225 17.0664C17.43 12.4855 21 9.45439 21 5.7563C21 2.72524 18.459 0.361206 15.225 0.361206Z" fill="#9758A6"/>
</svg>
